<svg xmlns="http://www.w3.org/2000/svg" viewBox="0 0 1600 900" preserveAspectRatio="xMidYMid slice">
  <defs>
    <linearGradient id="ggp" x1="0" y1="0" x2="1" y2="1">
      <stop offset="0%" stop-color="#fffceb"/>
      <stop offset="100%" stop-color="#cddf9d"/>
    </linearGradient>
    <radialGradient id="rgp" cx="0.7" cy="0.4" r="0.6">
      <stop offset="0%" stop-color="#ecc28a" stop-opacity="0.45"/>
      <stop offset="100%" stop-color="#ecc28a" stop-opacity="0"/>
    </radialGradient>
  </defs>
  <rect width="1600" height="900" fill="url(#ggp)"/>
  <rect width="1600" height="900" fill="url(#rgp)"/>
  <!-- Stethoscope motif -->
  <g transform="translate(1180 240)" opacity="0.55">
    <path d="M 0 0 L 0 80 a 60 60 0 0 0 60 60 a 60 60 0 0 0 60 -60 L 120 0" stroke="#5e5e00" stroke-width="6" fill="none" stroke-linecap="round"/>
    <path d="M 60 140 L 60 220 a 50 50 0 0 0 50 50 a 50 50 0 0 0 50 -50 L 160 200" stroke="#5e5e00" stroke-width="6" fill="none" stroke-linecap="round"/>
    <circle cx="160" cy="190" r="22" fill="#808000"/>
    <circle cx="160" cy="190" r="10" fill="#5e5e00"/>
    <circle cx="0" cy="0" r="8" fill="#5e5e00"/>
    <circle cx="120" cy="0" r="8" fill="#5e5e00"/>
  </g>
  <g opacity="0.4">
    <ellipse cx="280" cy="700" rx="280" ry="120" fill="#fffdd0"/>
    <circle cx="380" cy="180" r="100" fill="#cddf9d"/>
  </g>
</svg>
